<svg width="39" height="32" viewBox="0 0 39 32" fill="none" xmlns="http://www.w3.org/2000/svg">
<path d="M19.1761 7.95703C14.0625 7.95703 9.74786 11.4637 9.74786 15.9144C9.74786 20.3652 13.9027 23.8718 19.1761 23.8718C24.4495 23.8718 28.6043 20.3652 28.6043 15.9144C28.6043 11.4637 24.2897 7.95703 19.1761 7.95703ZM15.5007 12.6775C14.7017 12.6775 14.0625 12.138 14.0625 11.4637C14.0625 10.7893 14.7017 10.2498 15.5007 10.2498C16.2997 10.2498 16.9389 10.7893 16.9389 11.4637C16.9389 12.138 16.2997 12.6775 15.5007 12.6775Z" fill="white"/>
<path d="M35.7953 0H2.55681C1.1186 0 0 0.944097 0 2.02307V29.6716C0 30.7506 1.1186 31.6947 2.39701 31.6947H35.6355C36.9139 31.6947 38.0325 30.7506 38.0325 29.6716V2.02307C38.3521 0.944097 37.2335 0 35.7953 0ZM19.1761 26.5696C12.3046 26.5696 6.55182 21.8491 6.55182 15.9148C6.55182 9.98045 12.1448 5.25997 19.1761 5.25997C26.2073 5.25997 31.8003 9.98045 31.8003 15.9148C31.8003 21.8491 26.0475 26.5696 19.1761 26.5696ZM32.7591 4.45074C31.9601 4.45074 31.3209 3.91126 31.3209 3.2369C31.3209 2.56255 31.9601 2.02307 32.7591 2.02307C33.5581 2.02307 34.1973 2.56255 34.1973 3.2369C34.1973 3.91126 33.7179 4.45074 32.7591 4.45074Z" fill="white"/>
</svg>
