<svg width="39" height="35" viewBox="0 0 39 35" fill="none" xmlns="http://www.w3.org/2000/svg">
<path d="M2.06818 17.9613C2.06818 15.3058 2.50224 12.9185 3.37037 10.7992C4.2385 8.65446 5.46409 6.84161 7.04714 5.36069C8.65572 3.85424 10.5835 2.69248 12.8304 1.87542C15.1028 1.05836 17.6306 0.649833 20.4137 0.649833C23.1713 0.649833 25.6735 1.05836 27.9205 1.87542C30.1929 2.69248 32.1206 3.85424 33.7037 5.36069C35.3123 6.84161 36.5506 8.65446 37.4188 10.7992C38.2869 12.9185 38.721 15.3058 38.721 17.9613C38.721 19.5443 38.5295 20.9359 38.1465 22.1359C37.7635 23.3105 37.2273 24.2935 36.5379 25.085C35.8485 25.851 35.0314 26.4255 34.0867 26.8085C33.142 27.1915 32.1206 27.383 31.0227 27.383C30.1291 27.383 29.3375 27.2553 28.6481 27C27.9588 26.7447 27.3715 26.4127 26.8864 26.0042C26.4012 25.5957 26.031 25.1361 25.7757 24.6254C25.5203 24.0892 25.3927 23.5403 25.3927 22.9785L24.282 22.7104C24.0267 23.2466 23.682 23.719 23.2479 24.1275C22.8394 24.5361 22.367 24.8808 21.8308 25.1616C21.2946 25.4425 20.6946 25.6595 20.0307 25.8127C19.3924 25.9404 18.7285 26.0042 18.0391 26.0042C17.0944 26.0042 16.2008 25.851 15.3582 25.5446C14.5156 25.2127 13.7623 24.7276 13.0985 24.0892C12.4602 23.4254 11.9495 22.5828 11.5665 21.5614C11.1835 20.5401 10.992 19.3401 10.992 17.9613C10.992 16.557 11.1835 15.3569 11.5665 14.3611C11.9495 13.3398 12.4602 12.51 13.0985 11.8716C13.7623 11.2078 14.5156 10.7226 15.3582 10.4162C16.2008 10.0843 17.0944 9.91835 18.0391 9.91835C19.4435 9.91835 20.6691 10.1992 21.7159 10.7609C22.7883 11.3227 23.5671 12.1525 24.0522 13.2504L25.1629 12.944C24.9331 12.4078 24.7416 11.9355 24.5884 11.5269C24.4607 11.0929 24.3969 10.6716 24.3969 10.263H28.8396V21.2168C28.8396 21.5997 28.8907 21.9444 28.9928 22.2508C29.1205 22.5317 29.2865 22.7743 29.4907 22.9785C29.695 23.1828 29.9503 23.336 30.2567 23.4381C30.5631 23.5403 30.9206 23.5913 31.3291 23.5913C31.7887 23.5913 32.21 23.4892 32.593 23.2849C33.0015 23.0807 33.3462 22.7615 33.6271 22.3274C33.908 21.8678 34.125 21.2806 34.2782 20.5657C34.4314 19.8252 34.508 18.9571 34.508 17.9613C34.508 16.0974 34.1888 14.3483 33.5505 12.7142C32.9377 11.0801 32.0313 9.66302 30.8312 8.46296C29.6312 7.23738 28.1503 6.27988 26.3885 5.59049C24.6522 4.9011 22.6606 4.5564 20.4137 4.5564C18.1413 4.5564 16.1242 4.88833 14.3624 5.55219C12.6261 6.21605 11.158 7.14801 9.95791 8.34807C8.75786 9.52259 7.83866 10.9269 7.20034 12.561C6.58754 14.1951 6.28114 15.9952 6.28114 17.9613C6.28114 19.8252 6.58754 21.5487 7.20034 23.1317C7.83866 24.7148 8.75786 26.068 9.95791 27.1915C11.158 28.3405 12.6261 29.2341 14.3624 29.8725C16.1242 30.5108 18.1413 30.83 20.4137 30.83V34.7365C17.6306 34.7365 15.1028 34.3408 12.8304 33.5492C10.5835 32.7832 8.65572 31.6726 7.04714 30.2172C5.46409 28.7618 4.2385 27 3.37037 24.9318C2.50224 22.8636 2.06818 20.5401 2.06818 17.9613ZM19.8775 13.5951C19.2392 13.5951 18.6392 13.6717 18.0774 13.8249C17.5412 13.9781 17.0689 14.2334 16.6604 14.5909C16.2774 14.9228 15.971 15.3697 15.7412 15.9314C15.5114 16.4931 15.3965 17.1698 15.3965 17.9613C15.3965 18.7528 15.5114 19.4294 15.7412 19.9912C15.971 20.5274 16.2774 20.9742 16.6604 21.3317C17.0689 21.6636 17.5412 21.9189 18.0774 22.0976C18.6392 22.2508 19.2392 22.3274 19.8775 22.3274C20.4903 22.3274 21.0393 22.2636 21.5244 22.1359C22.0095 22.0083 22.4308 21.8678 22.7883 21.7146C23.1713 21.5359 23.5032 21.3444 23.7841 21.1402C24.065 20.9104 24.2692 20.7061 24.3969 20.5274V15.242C24.2692 15.1143 24.065 14.9611 23.7841 14.7824C23.5032 14.5781 23.1713 14.3866 22.7883 14.2079C22.4308 14.0292 22.0095 13.8887 21.5244 13.7866C21.0393 13.659 20.4903 13.5951 19.8775 13.5951Z" fill="white"/>
</svg>
