<svg width="19" height="16" viewBox="0 0 19 16" fill="none" xmlns="http://www.w3.org/2000/svg">
<path d="M18.4096 3.26766L17.7024 1.77041C17.5228 1.39781 17.1889 1.12122 16.7843 1.01836C14.5378 0.414887 11.9608 0.0457176 9.30389 0C6.589 0.0468605 4.01206 0.414887 1.55219 1.0675C1.36092 1.12237 1.02707 1.39896 0.850867 1.76355L0.140266 3.26881C0.0533241 3.44253 0.00231844 3.64712 0.00115922 3.86313V4.85749C0 4.87121 0 4.88721 0 4.90435C0 5.35238 0.368632 5.71584 0.823046 5.71584C0.835797 5.71584 0.848549 5.71584 0.8613 5.71469H3.78021C4.25781 5.70326 4.64035 5.31924 4.64035 4.84606C4.64035 4.82549 4.6392 4.80606 4.63804 4.78549V3.8277C4.63804 3.82313 4.63804 3.81856 4.63804 3.81399C4.63804 3.55225 4.77598 3.32252 4.98348 3.18994C6.08126 2.60933 7.38191 2.26873 8.76254 2.26873C8.94338 2.26873 9.1219 2.27445 9.30042 2.28588C9.44184 2.27331 9.63427 2.26645 9.82902 2.26645C11.1946 2.26645 12.4802 2.59904 13.6092 3.18651C13.775 3.29966 13.913 3.5294 13.913 3.79113V3.80599V4.78777C13.9118 4.80492 13.9106 4.82549 13.9106 4.84492C13.9106 5.31695 14.2932 5.70212 14.7696 5.71355H17.692C17.7024 5.71355 17.7152 5.71469 17.7279 5.71469C18.1824 5.71469 18.551 5.35124 18.551 4.90321C18.551 4.88721 18.551 4.87006 18.5498 4.85406V3.86199C18.5487 3.64598 18.4977 3.44139 18.4072 3.25966L18.4096 3.26766Z" fill="#FFFEFE"/>
<path d="M13.9118 8.34238C13.1885 7.43146 12.7514 6.26794 12.7514 5.005C12.7514 4.97299 12.7514 4.94099 12.7526 4.90899V4.57068H11.5934V5.71362H6.9565V4.57068H5.79728V4.94785C5.79728 4.97528 5.79844 5.00728 5.79844 5.03928C5.79844 6.30223 5.36141 7.4646 4.62878 8.3881L1.1604 12.5713V16.0001H17.3895V12.5713L13.9118 8.34238ZM9.27494 13.7142C7.35411 13.7142 5.79728 12.1792 5.79728 10.2854C5.79728 8.39152 7.35411 6.85656 9.27494 6.85656C11.1958 6.85656 12.7526 8.39152 12.7526 10.2854C12.7526 12.1792 11.1958 13.7142 9.27494 13.7142Z" fill="#FFFEFE"/>
<path d="M11.5933 10.2851C11.5933 11.5481 10.5558 12.571 9.27486 12.571C7.99392 12.571 6.95642 11.5481 6.95642 10.2851C6.95642 9.0222 7.99392 7.99927 9.27486 7.99927C10.5558 7.99927 11.5933 9.0222 11.5933 10.2851Z" fill="#FFFEFE"/>
</svg>
