<svg width="36" height="32" viewBox="0 0 36 32" fill="none" xmlns="http://www.w3.org/2000/svg">
<path d="M0.00722408 32L2.44082 24.0512C0.837272 21.6078 -0.00520313 18.8288 2.4178e-05 16C2.4178e-05 7.1632 8.05862 0 18 0C27.9414 0 36 7.1632 36 16C36 24.8368 27.9414 32 18 32C14.819 32.0046 11.694 31.2563 8.94602 29.832L0.00722408 32ZM11.5038 8.49279C11.2714 8.50563 11.0442 8.56004 10.836 8.65279C10.6408 8.75108 10.4625 8.87395 10.3068 9.01759C10.0908 9.19839 9.96842 9.35519 9.83702 9.50719C9.17176 10.2768 8.81392 11.2215 8.82002 12.192C8.82362 12.976 9.05402 13.7392 9.41402 14.4528C10.1502 15.896 11.3616 17.424 12.9618 18.84C13.347 19.1808 13.7232 19.5232 14.1282 19.8416C16.1143 21.396 18.4811 22.5168 21.0402 23.1152L22.0644 23.2544C22.3974 23.2704 22.7304 23.248 23.0652 23.2336C23.5895 23.2096 24.1013 23.0833 24.5646 22.864C24.8004 22.756 25.0304 22.6385 25.254 22.512C25.254 22.512 25.3314 22.4672 25.479 22.368C25.722 22.208 25.8714 22.0944 26.073 21.9072C26.2224 21.7696 26.352 21.608 26.451 21.424C26.5914 21.1632 26.7318 20.6656 26.7894 20.2512C26.8326 19.9344 26.82 19.7616 26.8146 19.6544C26.8074 19.4832 26.6472 19.3056 26.4726 19.2304L25.425 18.8128C25.425 18.8128 23.859 18.2064 22.9032 17.8192C22.8024 17.7801 22.6944 17.7579 22.5846 17.7536C22.4615 17.7424 22.3371 17.7547 22.2197 17.7897C22.1024 17.8248 21.9947 17.8817 21.9042 17.9568V17.9536C21.8952 17.9536 21.7746 18.0448 20.4732 19.4464C20.3985 19.5357 20.2957 19.603 20.1776 19.6401C20.0597 19.6771 19.9319 19.6821 19.8108 19.6544C19.6936 19.6265 19.5786 19.5912 19.467 19.5488C19.2438 19.4656 19.1664 19.4336 19.0134 19.3744L19.0044 19.3712C17.9747 18.9715 17.0212 18.4317 16.1784 17.7712C15.9516 17.5952 15.741 17.4032 15.525 17.2176C14.8169 16.6147 14.1997 15.9328 13.689 15.1888L13.5828 15.0368C13.5066 14.9346 13.4449 14.8245 13.3992 14.7088C13.3308 14.4736 13.509 14.2848 13.509 14.2848C13.509 14.2848 13.9464 13.8592 14.1498 13.6288C14.3192 13.4373 14.4772 13.2381 14.6232 13.032C14.8356 12.728 14.9022 12.416 14.7906 12.1744C14.2866 11.08 13.7646 9.99039 13.2282 8.90879C13.122 8.69439 12.807 8.54079 12.5208 8.51039C12.4236 8.50079 12.3264 8.49119 12.2292 8.48479C11.9875 8.47412 11.7453 8.47785 11.5038 8.49279Z" fill="white"/>
</svg>
